<svg width="938" height="213" viewBox="0 0 938 213" fill="none" xmlns="http://www.w3.org/2000/svg">
<path d="M318.636 118.455C318.636 128.606 316.712 137.242 312.864 144.364C309.045 151.485 303.833 156.924 297.227 160.682C290.652 164.409 283.258 166.273 275.045 166.273C266.773 166.273 259.348 164.394 252.773 160.636C246.197 156.879 241 151.439 237.182 144.318C233.364 137.197 231.455 128.576 231.455 118.455C231.455 108.303 233.364 99.6667 237.182 92.5455C241 85.4243 246.197 80 252.773 76.2728C259.348 72.5152 266.773 70.6364 275.045 70.6364C283.258 70.6364 290.652 72.5152 297.227 76.2728C303.833 80 309.045 85.4243 312.864 92.5455C316.712 99.6667 318.636 108.303 318.636 118.455ZM298.682 118.455C298.682 111.879 297.697 106.333 295.727 101.818C293.788 97.3031 291.045 93.8788 287.5 91.5455C283.955 89.2122 279.803 88.0455 275.045 88.0455C270.288 88.0455 266.136 89.2122 262.591 91.5455C259.045 93.8788 256.288 97.3031 254.318 101.818C252.379 106.333 251.409 111.879 251.409 118.455C251.409 125.03 252.379 130.576 254.318 135.091C256.288 139.606 259.045 143.03 262.591 145.364C266.136 147.697 270.288 148.864 275.045 148.864C279.803 148.864 283.955 147.697 287.5 145.364C291.045 143.03 293.788 139.606 295.727 135.091C297.697 130.576 298.682 125.03 298.682 118.455Z" fill="#FBFBFB"/>
<path d="M332.852 191.182V95.1819H351.943V106.909H352.807C353.655 105.03 354.883 103.121 356.489 101.182C358.125 99.2122 360.246 97.5758 362.852 96.2728C365.489 94.9394 368.761 94.2728 372.67 94.2728C377.761 94.2728 382.458 95.6061 386.761 98.2728C391.064 100.909 394.504 104.894 397.08 110.227C399.655 115.53 400.943 122.182 400.943 130.182C400.943 137.97 399.686 144.545 397.17 149.909C394.686 155.242 391.292 159.288 386.989 162.045C382.716 164.773 377.928 166.136 372.625 166.136C368.867 166.136 365.67 165.515 363.034 164.273C360.428 163.03 358.292 161.47 356.625 159.591C354.958 157.682 353.686 155.758 352.807 153.818H352.216V191.182H332.852ZM351.807 130.091C351.807 134.242 352.383 137.864 353.534 140.955C354.686 144.045 356.352 146.455 358.534 148.182C360.716 149.879 363.367 150.727 366.489 150.727C369.64 150.727 372.307 149.864 374.489 148.136C376.67 146.379 378.322 143.955 379.443 140.864C380.595 137.742 381.17 134.152 381.17 130.091C381.17 126.061 380.61 122.515 379.489 119.455C378.367 116.394 376.716 114 374.534 112.273C372.352 110.545 369.67 109.682 366.489 109.682C363.337 109.682 360.67 110.515 358.489 112.182C356.337 113.849 354.686 116.212 353.534 119.273C352.383 122.333 351.807 125.939 351.807 130.091Z" fill="#FBFBFB"/>
<path d="M445.67 166.364C438.489 166.364 432.307 164.909 427.125 162C421.973 159.061 418.004 154.909 415.216 149.545C412.428 144.152 411.034 137.773 411.034 130.409C411.034 123.227 412.428 116.924 415.216 111.5C418.004 106.076 421.928 101.849 426.989 98.8182C432.08 95.7879 438.049 94.2728 444.898 94.2728C449.504 94.2728 453.792 95.0152 457.761 96.5C461.761 97.9546 465.246 100.152 468.216 103.091C471.216 106.03 473.549 109.727 475.216 114.182C476.883 118.606 477.716 123.788 477.716 129.727V135.045H418.761V123.045H459.489C459.489 120.258 458.883 117.788 457.67 115.636C456.458 113.485 454.777 111.803 452.625 110.591C450.504 109.349 448.034 108.727 445.216 108.727C442.277 108.727 439.67 109.409 437.398 110.773C435.155 112.106 433.398 113.909 432.125 116.182C430.852 118.424 430.201 120.924 430.17 123.682V135.091C430.17 138.545 430.807 141.53 432.08 144.045C433.383 146.561 435.216 148.5 437.58 149.864C439.943 151.227 442.746 151.909 445.989 151.909C448.14 151.909 450.11 151.606 451.898 151C453.686 150.394 455.216 149.485 456.489 148.273C457.761 147.061 458.731 145.576 459.398 143.818L477.307 145C476.398 149.303 474.534 153.061 471.716 156.273C468.928 159.455 465.322 161.939 460.898 163.727C456.504 165.485 451.428 166.364 445.67 166.364Z" fill="#FBFBFB"/>
<path d="M509.716 124.636V165H490.352V95.1819H508.807V107.5H509.625C511.17 103.439 513.761 100.227 517.398 97.8637C521.034 95.4697 525.443 94.2728 530.625 94.2728C535.473 94.2728 539.701 95.3334 543.307 97.4546C546.913 99.5758 549.716 102.606 551.716 106.545C553.716 110.455 554.716 115.121 554.716 120.545V165H535.352V124C535.383 119.727 534.292 116.394 532.08 114C529.867 111.576 526.822 110.364 522.943 110.364C520.337 110.364 518.034 110.924 516.034 112.045C514.064 113.167 512.519 114.803 511.398 116.955C510.307 119.076 509.746 121.636 509.716 124.636Z" fill="#FBFBFB"/>
<path d="M570.341 165V71.9091H607.068C614.129 71.9091 620.144 73.2576 625.114 75.9546C630.083 78.6212 633.871 82.3334 636.477 87.0909C639.114 91.8182 640.432 97.2728 640.432 103.455C640.432 109.636 639.098 115.091 636.432 119.818C633.765 124.545 629.902 128.227 624.841 130.864C619.811 133.5 613.72 134.818 606.568 134.818H583.159V119.045H603.386C607.174 119.045 610.295 118.394 612.75 117.091C615.235 115.758 617.083 113.924 618.295 111.591C619.538 109.227 620.159 106.515 620.159 103.455C620.159 100.364 619.538 97.6667 618.295 95.3637C617.083 93.0303 615.235 91.2273 612.75 89.9546C610.265 88.6516 607.114 88 603.295 88H590.023V165H570.341Z" fill="#FBFBFB"/>
<path d="M683.545 166.364C676.364 166.364 670.182 164.909 665 162C659.848 159.061 655.879 154.909 653.091 149.545C650.303 144.152 648.909 137.773 648.909 130.409C648.909 123.227 650.303 116.924 653.091 111.5C655.879 106.076 659.803 101.849 664.864 98.8182C669.955 95.7879 675.924 94.2728 682.773 94.2728C687.379 94.2728 691.667 95.0152 695.636 96.5C699.636 97.9546 703.121 100.152 706.091 103.091C709.091 106.03 711.424 109.727 713.091 114.182C714.758 118.606 715.591 123.788 715.591 129.727V135.045H656.636V123.045H697.364C697.364 120.258 696.758 117.788 695.545 115.636C694.333 113.485 692.652 111.803 690.5 110.591C688.379 109.349 685.909 108.727 683.091 108.727C680.152 108.727 677.545 109.409 675.273 110.773C673.03 112.106 671.273 113.909 670 116.182C668.727 118.424 668.076 120.924 668.045 123.682V135.091C668.045 138.545 668.682 141.53 669.955 144.045C671.258 146.561 673.091 148.5 675.455 149.864C677.818 151.227 680.621 151.909 683.864 151.909C686.015 151.909 687.985 151.606 689.773 151C691.561 150.394 693.091 149.485 694.364 148.273C695.636 147.061 696.606 145.576 697.273 143.818L715.182 145C714.273 149.303 712.409 153.061 709.591 156.273C706.803 159.455 703.197 161.939 698.773 163.727C694.379 165.485 689.303 166.364 683.545 166.364Z" fill="#FBFBFB"/>
<path d="M747.591 124.636V165H728.227V95.1819H746.682V107.5H747.5C749.046 103.439 751.636 100.227 755.273 97.8637C758.909 95.4697 763.318 94.2728 768.5 94.2728C773.349 94.2728 777.576 95.3334 781.182 97.4546C784.788 99.5758 787.591 102.606 789.591 106.545C791.591 110.455 792.591 115.121 792.591 120.545V165H773.227V124C773.258 119.727 772.167 116.394 769.955 114C767.742 111.576 764.697 110.364 760.818 110.364C758.212 110.364 755.909 110.924 753.909 112.045C751.939 113.167 750.394 114.803 749.273 116.955C748.182 119.076 747.621 121.636 747.591 124.636Z" fill="#FBFBFB"/>
<path d="M839.398 166.364C832.246 166.364 826.095 164.849 820.943 161.818C815.822 158.758 811.883 154.515 809.125 149.091C806.398 143.667 805.034 137.424 805.034 130.364C805.034 123.212 806.413 116.939 809.17 111.545C811.958 106.121 815.913 101.894 821.034 98.8637C826.155 95.8031 832.246 94.2728 839.307 94.2728C845.398 94.2728 850.731 95.3788 855.307 97.5909C859.883 99.8031 863.504 102.909 866.17 106.909C868.837 110.909 870.307 115.606 870.58 121H852.307C851.792 117.515 850.428 114.712 848.216 112.591C846.034 110.439 843.171 109.364 839.625 109.364C836.625 109.364 834.004 110.182 831.761 111.818C829.549 113.424 827.822 115.773 826.58 118.864C825.337 121.955 824.716 125.697 824.716 130.091C824.716 134.545 825.322 138.333 826.534 141.455C827.777 144.576 829.519 146.955 831.761 148.591C834.004 150.227 836.625 151.045 839.625 151.045C841.837 151.045 843.822 150.591 845.58 149.682C847.367 148.773 848.837 147.455 849.989 145.727C851.171 143.97 851.943 141.864 852.307 139.409H870.58C870.277 144.742 868.822 149.439 866.216 153.5C863.64 157.53 860.08 160.682 855.534 162.955C850.989 165.227 845.61 166.364 839.398 166.364Z" fill="#FBFBFB"/>
<path d="M882.977 165V95.1819H902.341V165H882.977ZM892.705 86.1819C889.826 86.1819 887.356 85.2273 885.295 83.3182C883.265 81.3788 882.25 79.0606 882.25 76.3637C882.25 73.697 883.265 71.4091 885.295 69.5C887.356 67.5606 889.826 66.5909 892.705 66.5909C895.583 66.5909 898.038 67.5606 900.068 69.5C902.129 71.4091 903.159 73.697 903.159 76.3637C903.159 79.0606 902.129 81.3788 900.068 83.3182C898.038 85.2273 895.583 86.1819 892.705 86.1819Z" fill="#FBFBFB"/>
<path d="M937.216 71.9091V165H917.852V71.9091H937.216Z" fill="#FBFBFB"/>
<ellipse cx="108" cy="118.5" rx="108" ry="94.5" fill="#FBFBFB"/>
<path d="M90.9448 26.3018C93.8884 20.0006 97.3636 13.8336 100.738 7.75054C101.79 5.85904 102.881 3.53103 104.152 1.85218C105.422 0.173331 108.159 -0.509402 110.044 0.413966C110.85 0.811294 111.55 1.3877 112.087 2.10401C112.949 3.22884 114.566 6.31233 115.35 7.70577C118.646 13.5706 122.429 20.1125 125.216 26.2123C125.731 26.895 128.534 33.0005 129.055 34.1197C132.39 41.322 135.613 48.569 138.725 55.872C140.208 59.3976 142.491 65.5646 144.17 68.6984C141.853 69.9352 139.038 70.6347 136.66 71.7259C126.839 76.2364 114.745 79.2752 107.873 88.0891C105.596 85.8003 103.452 83.7409 100.744 81.9557C97.5762 79.7732 93.9667 78.4413 90.5307 76.7737C84.3133 73.7517 78.0344 71.323 71.6156 68.7879C78.1016 55.0158 83.8041 39.727 90.9448 26.3018Z" fill="#FAD9A6"/>
<path d="M107.228 1.61426C108.035 1.41597 108.816 1.4841 109.384 1.75879C109.978 2.05406 110.494 2.47934 110.887 3.00391L110.892 3.00977L110.896 3.0166C111.25 3.47935 111.819 4.43448 112.44 5.53906C112.74 6.07401 113.04 6.61867 113.315 7.12109C113.588 7.61916 113.841 8.08281 114.042 8.44043C117.039 13.7716 120.384 19.5759 123.038 25.0957C122.372 25.2548 121.655 25.4489 120.921 25.6592C119.329 26.1157 117.515 26.6881 115.768 27.2197C114.001 27.7576 112.29 28.2583 110.831 28.5996C109.304 28.9566 108.278 29.0806 107.771 29.0166C105.724 28.7574 102.926 27.9722 99.9282 27.0996C97.6374 26.4327 95.2368 25.7185 93.1196 25.2227C95.8523 19.5723 98.9755 14.0184 102.049 8.47754C103.182 6.44138 104.161 4.32647 105.346 2.75977C105.739 2.24236 106.418 1.81333 107.228 1.61426Z" fill="#011126" stroke="#FBFBFB" stroke-width="3"/>
<path d="M96.5466 135.556C98.6339 135.461 99.6189 137.184 101.091 138.387C102.786 139.775 104.734 140.486 106.905 140.626C114.622 141.124 116.178 135.824 118.635 135.645C119.429 135.589 120.224 135.925 120.789 136.474C121.304 136.972 121.606 137.626 121.589 138.343C121.55 139.568 120.543 140.408 119.748 141.208C118.679 142.232 117.487 143.116 116.2 143.838C109.423 147.649 99.4342 146.289 94.795 139.451C93.6701 137.8 94.9572 136.261 96.5466 135.556Z" fill="#011126"/>
<path d="M130.347 114.766C133.94 114.346 137.197 116.904 137.639 120.491C138.081 124.084 135.546 127.357 131.959 127.822C128.338 128.292 125.031 125.729 124.583 122.103C124.136 118.482 126.721 115.191 130.347 114.766Z" fill="#011126"/>
<path d="M82.3827 114.794C85.9418 114.145 89.3667 116.49 90.0494 120.049C90.7265 123.602 88.4153 127.044 84.8618 127.76C81.269 128.477 77.777 126.132 77.0831 122.528C76.3948 118.93 78.7731 115.454 82.3827 114.794Z" fill="#011126"/>
<path d="M48.5426 132.959C49.0295 132.92 49.6339 132.92 50.1375 132.903C51.0889 138.684 53.4001 144.152 56.8809 148.863C67.3122 163.24 86.0593 171.797 103.24 174.516L103.206 196C96.3619 195.748 87.755 194.595 81.213 192.805C52.1689 184.606 28.8721 165.663 23.0241 134.907C31.4911 134.28 40.098 133.513 48.5426 132.959Z" fill="#FEBF03"/>
<path d="M166.163 132.92C168.065 133.2 172.638 133.39 174.691 133.552L192.263 134.89C191.804 140.967 187.792 150.873 184.781 156.161C174.137 174.863 155.541 187.013 134.998 192.519C128.187 194.254 119.552 196.084 112.496 195.989C112.367 193.935 112.451 191.254 112.44 189.145C112.417 184.293 112.417 179.441 112.445 174.589C124.594 172.647 135.3 168.954 145.535 161.964C156.196 154.695 163.857 145.97 166.163 132.92Z" fill="#01B590"/>
<path d="M63.35 52.7159C63.7529 53.1748 63.6018 68.346 63.5962 70.4949L63.5906 99.3488C62.6673 100.093 61.7551 100.854 60.8597 101.632C53.6742 107.984 50.3725 116.915 49.8017 126.311C45.7277 126.345 41.3235 126.932 37.2495 127.195C32.2633 127.514 27.3219 127.833 22.3413 128.214C22.1454 127.346 22.0783 124.073 22.0503 123.132C21.7089 113.82 23.108 104.525 26.1803 95.7225C31.3399 80.4785 41.4466 67.8927 54.3849 58.4912C56.4835 56.969 61.0164 53.8687 63.35 52.7159Z" fill="#DB467D"/>
<path d="M151.742 52.6038C152.452 52.8836 154.842 54.4114 155.553 54.8647C161.977 58.9107 167.847 63.785 173.001 69.3588C184.143 81.3625 190.775 95.3194 192.733 111.699C193.399 117.217 193.198 122.562 192.991 128.096C192.213 128.208 189.191 127.878 188.083 127.85C180.892 127.648 173.617 126.613 166.465 126.277C166.426 125.158 166.342 124.039 166.202 122.925C164.921 112.578 159.755 105.605 151.77 99.3766L151.742 52.6038Z" fill="#0096E6"/>
</svg>
